<svg width="21" height="25" viewBox="0 0 21 25" fill="none" xmlns="http://www.w3.org/2000/svg">
<g clip-path="url(#clip0_12_123)">
<path d="M19.7935 8.38959C18.1549 9.40212 17.1429 11.1379 17.1429 13.0665C17.1429 15.2363 18.4441 17.2131 20.42 18.0328C20.0344 19.2864 19.4561 20.4436 18.7332 21.5043C17.673 22.999 16.5646 24.542 14.926 24.542C13.2875 24.542 12.8055 23.5776 10.8778 23.5776C8.9983 23.5776 8.3236 24.5902 6.78143 24.5902C5.23926 24.5902 4.17902 23.1919 2.9742 21.4561C1.38384 19.0453 0.468176 16.2488 0.419983 13.3076C0.419983 8.53423 3.50432 5.97879 6.58866 5.97879C8.22721 5.97879 9.57661 7.03954 10.5887 7.03954C11.5525 7.03954 13.0947 5.93057 14.926 5.93057C16.8537 5.88235 18.685 6.79846 19.7935 8.38959ZM14.0585 3.9055C14.8778 2.94118 15.3115 1.73578 15.3597 0.48216C15.3597 0.337512 15.3597 0.144648 15.3115 0C13.914 0.144648 12.6128 0.819672 11.6971 1.88042C10.8778 2.79653 10.3959 3.95371 10.3477 5.20733C10.3477 5.35198 10.3477 5.49663 10.3959 5.64127C10.4923 5.64127 10.6369 5.68949 10.7332 5.68949C12.0344 5.59306 13.2393 4.91803 14.0585 3.9055Z" fill="white"/>
</g>
<defs>
<clipPath id="clip0_12_123">
<rect width="20" height="24.5902" fill="white" transform="translate(0.419983)"/>
</clipPath>
</defs>
</svg>
