<svg width="390" height="844" viewBox="0 0 390 844" fill="none" xmlns="http://www.w3.org/2000/svg">
<rect width="390" height="844" rx="32" fill="#004040"/>
<rect x="128" y="831" width="134" height="5" rx="2.5" fill="white"/>
<path d="M141.309 434.937C140.721 435.189 140.007 435.399 139.167 435.567C138.327 435.735 137.571 435.819 136.899 435.819C136.521 435.819 135.996 435.777 135.324 435.693C134.694 435.609 134.043 435.462 133.371 435.252C132.741 435.042 132.174 434.79 131.67 434.496C131.208 434.202 130.977 433.824 130.977 433.362C130.977 433.194 130.956 433.026 130.914 432.858C130.914 432.648 130.914 432.459 130.914 432.291C130.998 431.115 131.061 430.233 131.103 429.645C131.187 429.057 131.271 428.595 131.355 428.259C131.481 427.923 131.607 427.629 131.733 427.377C131.901 427.083 132.111 426.642 132.363 426.054C132.363 426.012 132.405 425.97 132.489 425.928C132.615 425.844 132.72 425.76 132.804 425.676L133.245 425.487H133.56C133.56 425.655 133.518 425.781 133.434 425.865C133.392 425.907 133.371 425.991 133.371 426.117V426.243C133.539 426.159 133.665 426.033 133.749 425.865C133.875 425.697 134.001 425.529 134.127 425.361L137.025 422.904H136.017C136.185 422.736 136.458 422.568 136.836 422.4C137.214 422.232 137.613 422.064 138.033 421.896C138.495 421.686 138.915 421.497 139.293 421.329C139.671 421.161 139.923 421.014 140.049 420.888C140.637 420.426 141.183 420.111 141.687 419.943C142.233 419.775 142.779 419.439 143.325 418.935C143.451 418.179 143.577 417.36 143.703 416.478C143.829 415.596 143.976 414.714 144.144 413.832C144.312 412.908 144.501 412.026 144.711 411.186C144.963 410.304 145.215 409.485 145.467 408.729C145.551 408.603 145.698 408.54 145.908 408.54C146.118 408.498 146.286 408.477 146.412 408.477C146.496 408.477 146.58 408.498 146.664 408.54C146.748 408.582 146.832 408.603 146.916 408.603L147.483 408.477H147.609C147.903 408.477 148.26 408.561 148.68 408.729C149.1 408.897 149.499 409.107 149.877 409.359C150.255 409.569 150.57 409.8 150.822 410.052C151.116 410.304 151.263 410.514 151.263 410.682C151.263 410.85 151.2 410.976 151.074 411.06L151.263 411.186C151.221 411.186 151.116 411.249 150.948 411.375C150.822 411.501 150.675 411.669 150.507 411.879C150.339 412.047 150.192 412.236 150.066 412.446C149.94 412.614 149.877 412.761 149.877 412.887C149.877 413.181 149.814 413.58 149.688 414.084C149.562 414.588 149.415 415.113 149.247 415.659C149.121 416.163 148.995 416.625 148.869 417.045C148.743 417.465 148.68 417.738 148.68 417.864L148.869 418.179C148.869 418.473 148.785 418.809 148.617 419.187C148.491 419.523 148.428 419.859 148.428 420.195C148.428 420.279 148.386 420.384 148.302 420.51C148.26 420.636 148.197 420.867 148.113 421.203C148.029 421.539 147.903 422.022 147.735 422.652C147.609 423.24 147.462 424.08 147.294 425.172C147.126 425.382 147.042 425.781 147.042 426.369C147.084 426.915 147.063 427.335 146.979 427.629L146.853 428.07C146.853 428.154 146.874 428.322 146.916 428.574C146.958 428.784 146.979 428.994 146.979 429.204C146.853 429.204 146.748 429.288 146.664 429.456C146.58 429.582 146.538 429.729 146.538 429.897V430.275L146.79 429.519C146.832 429.687 146.874 429.876 146.916 430.086C146.958 430.296 146.979 430.443 146.979 430.527L146.853 430.968V431.472C146.853 431.556 146.832 431.619 146.79 431.661C146.79 431.703 146.79 431.745 146.79 431.787V431.913H146.538V432.606H146.853L146.979 432.921L146.853 433.677L146.979 433.803C146.979 433.845 147 433.971 147.042 434.181C147.084 434.349 147.105 434.475 147.105 434.559L146.979 434.685V435.189L145.782 435.756L143.01 436.197C142.632 436.197 142.296 435.987 142.002 435.567C141.75 435.147 141.561 434.937 141.435 434.937H141.309ZM135.513 432.039C135.765 432.165 136.122 432.27 136.584 432.354C137.046 432.396 137.508 432.438 137.97 432.48C138.474 432.48 138.936 432.501 139.356 432.543C139.818 432.585 140.196 432.648 140.49 432.732C140.532 432.732 140.637 432.795 140.805 432.921C141.015 433.005 141.162 433.047 141.246 433.047C141.288 433.047 141.309 432.942 141.309 432.732V432.165C141.309 432.039 141.351 431.745 141.435 431.283C141.519 430.779 141.561 430.149 141.561 429.393V428.889H141.498C141.498 428.763 141.519 428.658 141.561 428.574C141.603 428.49 141.624 428.364 141.624 428.196V426.369L141.813 426.117V424.479C141.687 424.479 141.372 424.584 140.868 424.794C140.364 425.004 139.818 425.256 139.23 425.55C138.684 425.802 138.18 426.054 137.718 426.306C137.256 426.516 137.004 426.642 136.962 426.684C136.416 427.398 136.059 428.028 135.891 428.574C135.723 429.078 135.597 429.519 135.513 429.897V430.212C135.513 430.296 135.513 430.38 135.513 430.464C135.555 430.548 135.576 430.611 135.576 430.653L135.702 431.157C135.702 431.199 135.66 431.346 135.576 431.598C135.534 431.808 135.513 431.955 135.513 432.039ZM135.261 423.534C135.261 423.618 135.135 423.807 134.883 424.101C134.631 424.353 134.463 424.521 134.379 424.605V424.416C134.379 424.164 134.463 423.954 134.631 423.786C134.841 423.618 135.051 423.534 135.261 423.534ZM134.127 424.542C134.127 424.626 134.085 424.773 134.001 424.983C133.917 425.193 133.791 425.298 133.623 425.298V424.794L134.064 424.227L134.127 424.542ZM135.828 422.841C135.87 422.841 135.891 422.883 135.891 422.967C135.891 423.093 135.849 423.24 135.765 423.408C135.681 423.576 135.576 423.66 135.45 423.66C135.408 423.66 135.387 423.639 135.387 423.597C135.387 423.513 135.429 423.366 135.513 423.156C135.639 422.946 135.744 422.841 135.828 422.841ZM189.072 427.944C189.324 427.944 189.513 427.881 189.639 427.755C189.807 427.629 189.933 427.503 190.017 427.377C190.101 427.251 190.185 427.125 190.269 426.999C190.395 426.873 190.542 426.81 190.71 426.81C191.256 426.81 191.76 426.6 192.222 426.18C192.726 425.718 192.978 424.668 192.978 423.03V421.833C192.978 421.623 192.894 421.434 192.726 421.266C192.558 421.098 192.432 421.014 192.348 421.014C192.306 421.056 192.159 421.14 191.907 421.266C191.655 421.392 191.382 421.56 191.088 421.77C190.794 421.938 190.5 422.127 190.206 422.337C189.912 422.547 189.681 422.757 189.513 422.967V423.597C189.429 424.269 189.261 425.004 189.009 425.802C188.757 426.6 188.631 427.356 188.631 428.07H189.009L189.072 427.944ZM198.081 426.117L197.262 427.062L196.884 427.314C196.422 427.524 195.981 427.755 195.561 428.007C195.141 428.217 194.721 428.385 194.301 428.511L194.049 428.763H193.734C193.482 428.763 193.314 428.847 193.23 429.015C193.188 429.183 193.041 429.288 192.789 429.33C192.327 429.414 192.033 429.498 191.907 429.582C191.781 429.666 191.718 429.729 191.718 429.771C191.76 429.855 191.781 429.897 191.781 429.897C191.781 429.939 191.697 429.981 191.529 430.023C191.403 430.065 191.256 430.107 191.088 430.149C190.92 430.149 190.773 430.17 190.647 430.212C190.521 430.212 190.479 430.212 190.521 430.212H190.206C190.08 430.338 189.744 430.422 189.198 430.464C188.652 430.506 188.211 430.632 187.875 430.842L188.253 432.354C188.463 432.438 188.736 432.522 189.072 432.606C189.45 432.69 189.828 432.753 190.206 432.795C190.584 432.837 190.941 432.879 191.277 432.921C191.613 432.921 191.865 432.921 192.033 432.921C192.621 432.921 193.188 432.9 193.734 432.858C194.322 432.774 194.931 432.732 195.561 432.732C196.149 432.732 196.716 432.795 197.262 432.921C197.808 433.005 198.333 433.215 198.837 433.551V433.992C198.837 434.202 198.816 434.454 198.774 434.748C198.774 435 198.711 435.168 198.585 435.252L198.333 435.378C198.291 435.42 198.123 435.462 197.829 435.504C197.535 435.588 197.199 435.672 196.821 435.756C196.443 435.84 196.044 435.903 195.624 435.945C195.246 436.029 194.952 436.071 194.742 436.071C193.902 436.071 193.062 436.071 192.222 436.071C191.424 436.113 190.605 436.134 189.765 436.134C189.135 436.134 188.442 436.029 187.686 435.819C186.972 435.609 186.279 435.315 185.607 434.937C184.977 434.559 184.41 434.097 183.906 433.551C183.444 433.005 183.15 432.396 183.024 431.724L183.213 431.283C183.213 431.199 183.234 431.031 183.276 430.779C183.318 430.527 183.36 430.233 183.402 429.897V429.33H183.843L183.906 429.267C183.906 429.015 183.927 428.868 183.969 428.826C183.969 428.784 183.927 428.742 183.843 428.7C183.801 428.616 183.78 428.532 183.78 428.448C183.78 428.406 183.843 428.343 183.969 428.259L184.032 427.44C184.032 427.272 184.032 427.083 184.032 426.873C184.074 426.663 184.179 426.39 184.347 426.054L184.536 425.928C184.536 425.76 184.452 425.592 184.284 425.424C184.41 425.382 184.494 425.256 184.536 425.046C184.578 424.836 184.641 424.731 184.725 424.731C184.767 424.731 184.788 424.752 184.788 424.794C184.788 424.794 184.809 424.794 184.851 424.794L185.103 424.983C185.145 424.941 185.166 424.92 185.166 424.92H185.355C185.481 424.92 185.544 424.878 185.544 424.794C185.544 424.584 185.439 424.416 185.229 424.29C185.061 424.122 184.977 423.933 184.977 423.723C184.977 423.639 184.998 423.576 185.04 423.534C185.04 423.45 185.019 423.387 184.977 423.345C184.935 423.303 184.914 423.261 184.914 423.219L185.103 423.156C185.355 422.526 185.628 422.043 185.922 421.707C186.258 421.371 186.615 421.035 186.993 420.699L187.308 420.51C187.896 420.132 188.463 419.712 189.009 419.25C189.597 418.788 190.248 418.557 190.962 418.557C191.676 418.557 192.432 418.641 193.23 418.809C194.07 418.935 194.868 418.998 195.624 418.998C196.632 419.502 197.199 419.817 197.325 419.943C197.493 420.027 197.619 420.069 197.703 420.069L197.64 420.699L198.144 421.077L198.333 421.455L197.892 422.022L198.27 422.526L197.892 423.093C197.808 423.177 197.766 423.282 197.766 423.408C197.766 423.534 197.766 423.639 197.766 423.723L197.829 423.786L197.892 424.101L197.766 424.794L198.207 424.983V425.361L197.955 425.55L198.081 425.739V426.117ZM198.207 423.534H198.333C198.417 423.534 198.459 423.597 198.459 423.723C198.459 423.891 198.375 423.975 198.207 423.975C198.123 423.975 198.081 423.891 198.081 423.723C198.081 423.597 198.123 423.534 198.207 423.534ZM198.459 424.416C198.459 424.584 198.417 424.668 198.333 424.668C198.249 424.668 198.207 424.584 198.207 424.416C198.207 424.332 198.228 424.29 198.27 424.29C198.312 424.29 198.375 424.332 198.459 424.416ZM221.467 434.433C221.383 434.013 221.257 433.635 221.089 433.299L221.341 433.236C221.383 433.32 221.509 433.509 221.719 433.803C221.971 434.097 222.097 434.286 222.097 434.37L222.601 434.937C222.475 434.601 222.307 434.16 222.097 433.614C221.929 433.026 221.74 432.417 221.53 431.787C221.32 431.157 221.11 430.527 220.9 429.897C220.69 429.267 220.501 428.7 220.333 428.196L219.829 425.928C219.619 425.088 219.451 424.311 219.325 423.597C219.241 422.883 219.094 422.106 218.884 421.266L218.632 421.392L218.569 422.085L218.128 422.526L218.002 422.148C217.96 422.106 217.939 422.043 217.939 421.959C217.771 421.371 217.645 421.014 217.561 420.888C217.477 420.72 217.372 420.489 217.246 420.195L216.616 418.998L217.309 418.242C217.519 418.242 217.771 418.263 218.065 418.305C218.401 418.347 218.59 418.368 218.632 418.368H219.073L220.333 419.187C220.837 419.313 221.152 419.502 221.278 419.754C221.404 419.964 221.572 420.258 221.782 420.636L222.223 421.896C222.307 422.022 222.349 422.337 222.349 422.841C222.349 423.303 222.391 423.576 222.475 423.66L222.853 424.416C223.021 424.752 223.21 425.34 223.42 426.18C223.672 426.978 223.882 427.818 224.05 428.7L224.365 429.141C224.449 429.267 224.491 429.477 224.491 429.771C224.491 430.023 224.533 430.233 224.617 430.401L225.247 431.535C225.457 431.535 225.688 431.22 225.94 430.59C226.234 429.96 226.507 429.246 226.759 428.448C227.053 427.65 227.305 426.894 227.515 426.18C227.725 425.424 227.872 424.962 227.956 424.794C227.998 424.626 228.061 424.521 228.145 424.479C228.271 424.437 228.376 424.332 228.46 424.164C228.922 423.324 229.258 422.463 229.468 421.581C229.72 420.657 230.077 419.775 230.539 418.935C230.917 418.221 231.253 417.57 231.547 416.982C231.883 416.352 232.219 415.68 232.555 414.966L233.941 413.706C234.067 413.706 234.151 413.832 234.193 414.084C234.277 414.294 234.382 414.399 234.508 414.399C234.802 414.357 235.201 414.294 235.705 414.21C236.251 414.084 236.755 414.021 237.217 414.021C237.553 414.021 237.868 414.105 238.162 414.273C238.498 414.441 238.666 414.777 238.666 415.281C238.666 415.491 238.624 415.68 238.54 415.848C238.498 416.016 238.477 416.205 238.477 416.415C238.477 416.541 238.498 416.646 238.54 416.73L237.91 417.045L237.217 417.99C236.965 418.326 236.797 418.746 236.713 419.25C236.629 419.754 236.44 420.174 236.146 420.51C235.684 420.972 235.39 421.329 235.264 421.581C235.18 421.791 235.033 422.022 234.823 422.274L233.626 425.298C233.332 425.844 233.08 426.369 232.87 426.873C232.66 427.335 232.45 427.818 232.24 428.322C232.072 428.826 231.925 429.309 231.799 429.771C231.673 429.897 231.484 430.17 231.232 430.59C231.022 430.968 230.791 431.388 230.539 431.85C230.329 432.27 230.14 432.69 229.972 433.11C229.846 433.488 229.783 433.74 229.783 433.866C229.783 433.908 229.678 434.034 229.468 434.244C229.3 434.454 229.111 434.685 228.901 434.937C228.691 435.147 228.481 435.357 228.271 435.567C228.103 435.777 227.998 435.903 227.956 435.945L226.759 436.512L225.184 436.764L224.806 436.953L224.554 436.764C223.924 436.428 223.441 436.155 223.105 435.945C222.769 435.777 222.496 435.63 222.286 435.504C222.118 435.378 221.971 435.231 221.845 435.063C221.761 434.937 221.656 434.727 221.53 434.433H221.467ZM219.451 427.314L219.514 426.999L219.766 427.503L219.829 428.385L219.451 428.196V427.314ZM218.317 423.03L218.632 422.904L218.884 423.156L218.632 423.786L218.317 423.03ZM219.451 425.865L219.388 426.495H219.136L218.947 425.991L219.451 425.865ZM220.648 431.409L221.026 431.535L220.837 431.913L220.333 431.472L220.648 431.409ZM218.758 424.857L218.947 424.479L219.262 425.361L218.884 425.109L218.758 424.857ZM220.333 430.59H220.459C220.543 430.59 220.585 430.611 220.585 430.653C220.585 430.821 220.459 430.905 220.207 430.905C220.165 430.905 220.144 430.884 220.144 430.842C220.144 430.758 220.207 430.674 220.333 430.59ZM218.884 424.353L218.695 423.975L218.947 423.849L218.884 424.353ZM220.081 429.204L219.955 429.582L219.829 429.33L220.081 429.204Z" fill="white"/>
<path d="M155.282 432.984L155.597 432.732H155.282V432.417C155.282 432.375 155.324 432.312 155.408 432.228L155.597 432.48L156.668 431.283C156.626 431.199 156.605 431.136 156.605 431.094C156.605 431.052 156.542 430.989 156.416 430.905C156.29 431.031 156.206 431.115 156.164 431.157C156.122 431.157 155.912 431.157 155.534 431.157C155.492 431.073 155.471 430.968 155.471 430.842C155.471 430.506 155.534 430.233 155.66 430.023C155.828 429.813 155.912 429.603 155.912 429.393H155.786C155.702 429.393 155.597 429.309 155.471 429.141C155.387 429.141 155.303 429.183 155.219 429.267C155.177 429.309 155.135 429.33 155.093 429.33C155.135 429.162 155.24 428.931 155.408 428.637C155.618 428.301 155.723 428.07 155.723 427.944L155.471 427.125C155.471 426.999 155.471 426.852 155.471 426.684C155.513 426.516 155.534 426.327 155.534 426.117C155.534 425.907 155.513 425.697 155.471 425.487C155.471 425.277 155.471 425.046 155.471 424.794L155.597 424.542C155.597 423.954 155.555 423.66 155.471 423.66C155.387 423.618 155.345 423.492 155.345 423.282C155.345 423.24 155.429 423.135 155.597 422.967C155.513 422.883 155.471 422.82 155.471 422.778C155.471 422.694 155.513 422.589 155.597 422.463C155.723 422.337 155.786 422.19 155.786 422.022L155.597 421.959C155.723 421.623 155.807 421.203 155.849 420.699C155.891 420.195 155.933 419.691 155.975 419.187C156.017 418.641 156.038 418.158 156.038 417.738C156.08 417.276 156.143 416.919 156.227 416.667C156.227 415.617 156.332 414.777 156.542 414.147C156.794 413.475 156.92 412.719 156.92 411.879C156.92 411.459 156.941 410.955 156.983 410.367C157.025 409.779 157.067 409.233 157.109 408.729C157.193 408.183 157.256 407.721 157.298 407.343C157.34 406.965 157.361 406.734 157.361 406.65H157.802L158.873 406.083H159.566C159.776 406.083 159.944 406.188 160.07 406.398C160.238 406.608 160.448 406.818 160.7 407.028L161.708 407.973L162.086 408.351C162.086 408.435 162.065 408.54 162.023 408.666C162.023 408.75 162.023 408.834 162.023 408.918L161.834 410.052C161.834 410.346 161.876 410.871 161.96 411.627C162.086 412.341 162.149 412.845 162.149 413.139C162.107 413.223 162.086 413.265 162.086 413.265L162.149 414.903C162.149 414.987 162.107 415.071 162.023 415.155C161.939 415.239 161.897 415.386 161.897 415.596C161.939 415.68 161.96 415.764 161.96 415.848C161.96 416.016 161.897 416.1 161.771 416.1C161.645 416.1 161.582 416.142 161.582 416.226L161.645 416.289H161.897C161.897 416.373 161.855 416.478 161.771 416.604C161.729 416.73 161.708 416.835 161.708 416.919C161.876 417.003 161.981 417.234 162.023 417.612C162.065 417.99 162.086 418.389 162.086 418.809L162.212 418.872C162.17 418.956 162.128 419.019 162.086 419.061C162.044 419.061 162.023 419.103 162.023 419.187C162.023 419.271 162.065 419.355 162.149 419.439C162.149 419.649 162.086 419.775 161.96 419.817C161.834 419.817 161.771 419.985 161.771 420.321C161.771 420.447 161.897 420.51 162.149 420.51C161.897 420.762 161.771 420.867 161.771 420.825C161.771 420.909 161.855 420.972 162.023 421.014L162.212 421.644C161.96 421.98 161.834 422.274 161.834 422.526V422.652C162.044 422.568 162.233 422.421 162.401 422.211C162.611 422.001 162.8 421.833 162.968 421.707L164.228 421.014L164.102 420.951C164.312 420.951 164.543 420.888 164.795 420.762C165.089 420.594 165.362 420.447 165.614 420.321C165.866 420.153 166.076 420.006 166.244 419.88C166.454 419.712 166.58 419.628 166.622 419.628C166.622 419.544 166.601 419.481 166.559 419.439C166.559 419.397 166.559 419.355 166.559 419.313L166.748 419.124L169.52 416.856L170.087 416.289C170.171 416.247 170.318 416.121 170.528 415.911C170.78 415.659 170.948 415.491 171.032 415.407L171.158 415.281H170.906L171.662 414.525C171.62 414.483 171.599 414.441 171.599 414.399C171.599 414.231 171.683 414.063 171.851 413.895C172.019 413.727 172.166 413.643 172.292 413.643C172.334 413.643 172.355 413.685 172.355 413.769C172.397 413.811 172.46 413.832 172.544 413.832L172.859 413.769C172.901 413.769 172.964 413.832 173.048 413.958C173.174 414.042 173.279 414.084 173.363 414.084C173.447 414.084 173.51 414.084 173.552 414.084C173.594 414.042 173.657 414.021 173.741 414.021C173.867 414.021 174.014 414.105 174.182 414.273C174.35 414.441 174.497 414.651 174.623 414.903C174.791 415.113 174.917 415.344 175.001 415.596C175.127 415.848 175.19 416.058 175.19 416.226L175.001 416.73L174.623 417.108C174.245 417.486 173.846 417.822 173.426 418.116C173.006 418.41 172.628 418.725 172.292 419.061L169.898 421.644L169.394 422.022C169.604 422.358 169.814 422.82 170.024 423.408C170.276 423.996 170.402 424.332 170.402 424.416L170.906 426.243C171.074 426.873 171.389 427.545 171.851 428.259C172.355 428.931 172.817 429.666 173.237 430.464L173.048 431.409L173.741 431.913L174.371 432.732L174.182 433.425L174.812 433.74L174.623 434.496C174.623 434.58 174.644 434.706 174.686 434.874C174.728 435.042 174.791 435.147 174.875 435.189L175.001 435.441C175.211 436.197 175.505 437.079 175.883 438.087C176.303 439.095 176.702 440.061 177.08 440.985C177.5 441.909 177.836 442.665 178.088 443.253C178.382 443.883 178.529 444.198 178.529 444.198V443.568C178.445 443.484 178.403 443.253 178.403 442.875C178.403 442.497 178.361 442.266 178.277 442.182L178.592 442.056C178.718 442.602 178.823 443.022 178.907 443.316C178.991 443.61 179.054 443.841 179.096 444.009C179.138 444.219 179.159 444.366 179.159 444.45C179.201 444.576 179.222 444.702 179.222 444.828C179.222 444.996 179.201 445.122 179.159 445.206L178.844 445.836L178.151 446.214L177.521 446.844L176.765 446.718L176.324 446.907L176.135 447.411C175.967 447.453 175.799 447.453 175.631 447.411C175.463 447.411 175.274 447.432 175.064 447.474L174.938 447.222C174.854 446.97 174.686 446.55 174.434 445.962C174.182 445.416 173.909 444.828 173.615 444.198C173.321 443.568 173.027 442.959 172.733 442.371C172.481 441.825 172.292 441.426 172.166 441.174L171.473 440.544L171.158 439.662L170.843 439.536L170.402 438.528C170.066 437.94 169.835 437.478 169.709 437.142C169.625 436.848 169.583 436.617 169.583 436.449C169.583 436.323 169.646 436.218 169.772 436.134L169.394 435.378L169.142 434.622C168.302 432.564 167.588 431.094 167 430.212C166.454 429.33 166.139 428.847 166.055 428.763V428.637H166.37V428.448C166.37 428.364 166.307 428.217 166.181 428.007C166.097 427.755 166.055 427.608 166.055 427.566V427.44C166.055 427.356 166.076 427.314 166.118 427.314C166.16 427.272 166.181 427.209 166.181 427.125H166.055L165.677 426.558C165.593 426.516 165.509 426.327 165.425 425.991C165.341 425.655 165.257 425.445 165.173 425.361L164.984 424.92C164.564 425.34 164.102 425.655 163.598 425.865C163.136 426.033 162.716 426.306 162.338 426.684L161.204 427.125V432.417L161.393 432.48C161.309 432.732 161.267 432.942 161.267 433.11C161.267 433.278 161.309 433.362 161.393 433.362L161.267 433.677C161.225 433.761 161.204 433.866 161.204 433.992C161.204 434.202 161.246 434.391 161.33 434.559C161.414 434.727 161.456 434.916 161.456 435.126V435.441L161.33 435.567L161.582 435.882C161.54 435.924 161.498 435.966 161.456 436.008C161.456 436.05 161.414 436.092 161.33 436.134V436.008C161.078 436.092 160.931 436.155 160.889 436.197L161.519 436.323C161.267 436.575 161.036 436.701 160.826 436.701C160.658 436.575 160.553 436.491 160.511 436.449C160.511 436.407 160.406 436.386 160.196 436.386C159.734 436.386 159.251 436.449 158.747 436.575C158.243 436.701 157.844 436.806 157.55 436.89C156.71 436.764 156.143 436.533 155.849 436.197C155.597 435.903 155.471 435.588 155.471 435.252C155.471 435.084 155.492 434.958 155.534 434.874V434.811C155.534 434.643 155.597 434.559 155.723 434.559C155.849 434.517 155.912 434.328 155.912 433.992C155.912 433.866 155.681 433.803 155.219 433.803L155.282 432.984ZM176.765 437.142L176.576 437.52L176.009 436.827C176.009 436.827 175.946 436.659 175.82 436.323L176.135 436.512L176.765 437.142ZM156.416 430.527C156.626 430.527 156.731 430.443 156.731 430.275C156.731 430.107 156.794 429.75 156.92 429.204C156.836 429.204 156.752 429.267 156.668 429.393C156.584 429.519 156.542 429.624 156.542 429.708C156.542 429.75 156.542 429.771 156.542 429.771C156.584 429.771 156.605 429.792 156.605 429.834C156.605 429.918 156.563 430.002 156.479 430.086C156.395 430.17 156.353 430.275 156.353 430.401C156.353 430.443 156.374 430.485 156.416 430.527ZM178.088 440.229L178.214 440.544L178.025 440.859L177.647 440.733L177.836 440.355L178.088 440.229ZM175.127 434.811C175.211 434.769 175.253 434.748 175.253 434.748C175.421 434.748 175.505 434.832 175.505 435C175.505 435.126 175.442 435.189 175.316 435.189C175.148 435.189 175.064 435.105 175.064 434.937C175.064 434.895 175.085 434.853 175.127 434.811ZM177.521 439.599H177.647C177.731 439.599 177.773 439.62 177.773 439.662C177.773 439.746 177.731 439.809 177.647 439.851C177.563 439.893 177.479 439.914 177.395 439.914C177.311 439.914 177.269 439.893 177.269 439.851C177.269 439.767 177.353 439.683 177.521 439.599ZM175.631 435.567C175.673 435.651 175.694 435.693 175.694 435.693V435.756V435.819C175.526 435.819 175.442 435.714 175.442 435.504H175.505C175.547 435.504 175.589 435.525 175.631 435.567ZM177.017 438.339L177.143 438.528L176.639 438.402L177.017 438.339ZM155.723 428.763H155.597L155.534 428.826C155.534 428.868 155.618 428.931 155.786 429.015L155.723 428.763ZM155.912 430.275V429.96C155.87 429.96 155.828 430.023 155.786 430.149L155.912 430.275ZM198.242 448.482C198.032 448.482 197.948 448.482 197.99 448.482C197.99 448.482 197.927 448.545 197.801 448.671C197.675 448.545 197.549 448.461 197.423 448.419C197.297 448.377 197.192 448.314 197.108 448.23C196.982 448.188 196.877 448.104 196.793 447.978C196.709 447.852 196.667 447.642 196.667 447.348C196.667 447.096 196.688 446.844 196.73 446.592C196.73 446.34 196.835 446.151 197.045 446.025L197.171 446.151C197.255 446.151 197.402 446.046 197.612 445.836C197.822 445.668 198.032 445.479 198.242 445.269C198.452 445.059 198.662 444.849 198.872 444.639C199.04 444.429 199.166 444.303 199.25 444.261L199.313 443.946L199.439 443.82C200.237 443.022 200.93 442.35 201.518 441.804C202.148 441.3 202.82 440.754 203.534 440.166C203.828 439.956 203.954 439.62 203.912 439.158C203.912 438.696 203.975 438.297 204.101 437.961V437.646C204.101 437.562 204.143 437.478 204.227 437.394L204.038 437.205V436.827L204.101 436.953C204.353 436.533 204.479 436.092 204.479 435.63C204.521 435.168 204.584 434.706 204.668 434.244C204.668 434.16 204.731 434.055 204.857 433.929C204.983 433.761 205.046 433.614 205.046 433.488L204.857 433.362V432.858H204.983C204.983 432.354 205.025 431.913 205.109 431.535C205.235 431.115 205.298 430.674 205.298 430.212L204.857 430.275L205.046 430.086L205.991 426.369C206.159 426.159 206.243 425.907 206.243 425.613C206.243 425.277 206.18 424.962 206.054 424.668C205.928 424.332 205.865 423.996 205.865 423.66C205.865 423.45 205.928 423.219 206.054 422.967L206.369 422.589C206.453 422.505 206.495 422.379 206.495 422.211V421.959C206.495 421.833 206.537 421.707 206.621 421.581C206.747 421.413 206.81 421.245 206.81 421.077V421.014V420.51C206.852 420.258 206.915 419.943 206.999 419.565C207.083 419.187 207.209 418.83 207.377 418.494C207.545 418.116 207.734 417.78 207.944 417.486C208.196 417.192 208.49 417.003 208.826 416.919C208.826 417.045 208.826 417.192 208.826 417.36C208.868 417.528 208.973 417.612 209.141 417.612L209.204 417.927C209.414 417.801 209.519 417.696 209.519 417.612C209.519 417.486 209.498 417.381 209.456 417.297C209.666 417.507 209.771 417.654 209.771 417.738C209.855 417.528 210.002 417.423 210.212 417.423C210.422 417.423 210.611 417.36 210.779 417.234C210.779 417.486 210.905 417.612 211.157 417.612L211.535 417.486H211.661C211.829 417.486 212.039 417.57 212.291 417.738L212.417 417.99C212.417 418.074 212.438 418.137 212.48 418.179C212.564 418.179 212.606 418.221 212.606 418.305L212.858 418.116C212.774 418.242 212.69 418.494 212.606 418.872C212.564 419.25 212.543 419.502 212.543 419.628V419.754C212.585 419.838 212.648 419.88 212.732 419.88C212.816 419.88 212.858 419.922 212.858 420.006C212.858 420.51 212.774 420.972 212.606 421.392C212.438 421.77 212.354 422.253 212.354 422.841V423.156L212.48 423.471C212.48 423.597 212.459 423.744 212.417 423.912C212.375 424.038 212.354 424.185 212.354 424.353V424.479L212.228 424.794L212.165 424.857C212.165 424.941 212.228 425.004 212.354 425.046C212.48 425.088 212.585 425.109 212.669 425.109H212.795C212.795 425.487 212.648 425.907 212.354 426.369C212.102 426.831 211.766 427.104 211.346 427.188C211.346 427.272 211.409 427.314 211.535 427.314C211.661 427.314 211.745 427.293 211.787 427.251C211.787 427.545 211.661 427.944 211.409 428.448C211.157 428.91 211.031 429.183 211.031 429.267V429.393C211.115 429.477 211.157 429.54 211.157 429.582C211.157 429.792 211.115 429.981 211.031 430.149C210.947 430.317 210.905 430.464 210.905 430.59C210.947 430.8 211.052 430.905 211.22 430.905C211.43 430.905 211.556 431.052 211.598 431.346C211.598 431.724 211.493 432.102 211.283 432.48C211.073 432.816 210.926 433.194 210.842 433.614C210.716 434.16 210.674 434.664 210.716 435.126C210.758 435.63 210.611 436.197 210.275 436.827H210.401C210.443 436.827 210.485 436.806 210.527 436.764C210.611 436.722 210.737 436.701 210.905 436.701C210.905 437.037 210.779 437.331 210.527 437.583C210.275 437.877 210.149 438.171 210.149 438.465V438.717C210.149 438.885 210.023 438.969 209.771 438.969L209.834 439.536C209.834 439.62 209.792 439.788 209.708 440.04C209.624 440.334 209.582 440.523 209.582 440.607H209.519C209.351 440.607 209.225 440.754 209.141 441.048C209.057 441.384 209.015 441.615 209.015 441.741V441.804C209.057 441.762 209.162 441.741 209.33 441.741C209.33 442.413 209.183 442.98 208.889 443.442C208.637 443.904 207.986 444.135 206.936 444.135L206.558 444.324C206.516 444.324 206.453 444.345 206.369 444.387C206.285 444.429 206.201 444.45 206.117 444.45L206.18 444.639C205.802 444.681 205.319 444.87 204.731 445.206C204.143 445.542 203.744 445.794 203.534 445.962L203.093 446.466C202.757 446.802 202.379 447.012 201.959 447.096C201.581 447.18 201.161 447.39 200.699 447.726C200.531 447.81 200.405 447.936 200.321 448.104C200.195 448.314 200.027 448.461 199.817 448.545V448.356C199.607 448.356 199.355 448.44 199.061 448.608C198.767 448.818 198.494 448.923 198.242 448.923H198.053C198.221 448.881 198.305 448.818 198.305 448.734C198.305 448.692 198.305 448.65 198.305 448.608C198.263 448.608 198.242 448.566 198.242 448.482ZM206.243 410.367C206.327 410.031 206.369 409.737 206.369 409.485C206.411 409.233 206.474 408.918 206.558 408.54H206.936C207.104 408.54 207.377 408.582 207.755 408.666C208.133 408.708 208.511 408.771 208.889 408.855C209.309 408.897 209.708 408.96 210.086 409.044C210.464 409.086 210.737 409.107 210.905 409.107C210.905 409.023 210.842 408.96 210.716 408.918C210.59 408.834 210.527 408.75 210.527 408.666C211.409 408.792 212.123 409.212 212.669 409.926C213.215 410.64 213.488 411.459 213.488 412.383C213.488 412.551 213.467 412.782 213.425 413.076C213.425 413.37 213.341 413.622 213.173 413.832C213.131 413.874 212.879 413.937 212.417 414.021C211.955 414.105 211.451 414.189 210.905 414.273C210.359 414.315 209.834 414.357 209.33 414.399C208.826 414.441 208.511 414.462 208.385 414.462C208.049 414.42 207.734 414.273 207.44 414.021C207.188 413.727 206.957 413.391 206.747 413.013C206.579 412.635 206.432 412.257 206.306 411.879C206.222 411.459 206.18 411.081 206.18 410.745C206.18 410.661 206.18 410.598 206.18 410.556C206.222 410.514 206.243 410.451 206.243 410.367ZM243.525 424.416C243.483 424.164 243.399 423.954 243.273 423.786C243.189 423.576 243.147 423.324 243.147 423.03V422.904C243.105 422.862 243.084 422.82 243.084 422.778L243.21 422.652C243.294 422.358 243.399 421.959 243.525 421.455C243.693 420.951 243.777 420.468 243.777 420.006L243.651 419.691C243.651 419.523 243.714 419.145 243.84 418.557C244.008 417.927 244.134 417.192 244.218 416.352C244.218 416.268 244.197 416.163 244.155 416.037C244.155 415.911 244.155 415.806 244.155 415.722C244.155 414.924 244.26 414.273 244.47 413.769C244.68 413.223 244.785 412.572 244.785 411.816C244.785 411.564 244.806 411.228 244.848 410.808C244.89 410.388 244.953 409.989 245.037 409.611C245.121 409.233 245.226 408.897 245.352 408.603C245.478 408.309 245.604 408.162 245.73 408.162L246.99 407.469C247.158 407.511 247.263 407.553 247.305 407.595C247.347 407.595 247.389 407.595 247.431 407.595C247.431 407.595 247.515 407.553 247.683 407.469C247.851 407.511 248.124 407.553 248.502 407.595C248.88 407.637 249.258 407.7 249.636 407.784C250.056 407.868 250.455 407.994 250.833 408.162C251.211 408.288 251.484 408.477 251.652 408.729L251.085 410.052C251.085 410.22 251.022 410.514 250.896 410.934C250.812 411.312 250.707 411.732 250.581 412.194C250.497 412.614 250.392 413.034 250.266 413.454C250.182 413.874 250.14 414.168 250.14 414.336C250.14 414.504 250.161 414.819 250.203 415.281C250.245 415.701 250.287 416.016 250.329 416.226C250.329 416.31 250.266 416.415 250.14 416.541C250.056 416.667 250.014 416.772 250.014 416.856C250.098 416.856 250.14 416.898 250.14 416.982C250.14 417.066 250.077 417.213 249.951 417.423C249.867 417.591 249.825 417.843 249.825 418.179L249.888 418.557L249.762 419.061L249.888 419.124C249.888 419.124 249.867 419.292 249.825 419.628C249.825 419.964 249.804 420.321 249.762 420.699C249.72 421.077 249.678 421.434 249.636 421.77C249.636 422.106 249.636 422.295 249.636 422.337L249.888 423.156V423.534L249.447 424.857L249.888 424.794C250.014 424.71 250.224 424.605 250.518 424.479C250.854 424.353 251.19 424.227 251.526 424.101C251.862 423.975 252.177 423.849 252.471 423.723C252.807 423.597 253.038 423.513 253.164 423.471C253.248 423.471 253.479 423.366 253.857 423.156C254.235 422.904 254.466 422.778 254.55 422.778H255.369C255.957 422.778 256.587 422.841 257.259 422.967C257.931 423.051 258.582 423.093 259.212 423.093L260.094 425.55L259.527 426.18C259.317 427.02 259.191 427.755 259.149 428.385C259.149 428.973 259.128 429.708 259.086 430.59C259.17 430.926 259.212 431.136 259.212 431.22C259.086 431.808 258.96 432.501 258.834 433.299C258.708 434.055 258.645 434.79 258.645 435.504C258.645 435.924 258.666 436.218 258.708 436.386L258.393 436.575C258.267 436.617 258.141 436.722 258.015 436.89C257.931 437.058 257.784 437.142 257.574 437.142C257.49 437.142 257.301 437.058 257.007 436.89C256.755 436.722 256.545 436.638 256.377 436.638H256.251L256.377 436.827L256.251 436.953C256.251 437.037 256.335 437.079 256.503 437.079H256.692V437.52C255.81 437.478 255.138 437.121 254.676 436.449C254.214 435.819 253.983 435.147 253.983 434.433C253.983 433.089 253.878 431.787 253.668 430.527C253.5 429.225 253.416 427.965 253.416 426.747H253.29C252.744 426.747 252.303 426.873 251.967 427.125C251.673 427.335 251.295 427.44 250.833 427.44L250.644 427.629C250.644 427.671 250.581 427.713 250.455 427.755L250.329 427.692C250.077 427.776 249.741 427.944 249.321 428.196C248.901 428.448 248.628 428.742 248.502 429.078C248.67 429.078 248.754 429.183 248.754 429.393C248.754 429.687 248.607 429.939 248.313 430.149C248.061 430.317 247.935 430.527 247.935 430.779L247.746 431.535L248.061 432.417L247.62 433.488V434.307L247.494 434.874L247.809 436.071L247.431 437.205L245.604 437.016C245.52 437.016 245.436 436.995 245.352 436.953C245.31 436.953 245.268 436.953 245.226 436.953H245.1L244.218 436.701L243.651 436.323C243.609 436.281 243.504 436.113 243.336 435.819C243.21 435.525 243.126 435.336 243.084 435.252L243.21 434.685L242.958 434.811L242.58 434.433L242.517 434.181L242.832 433.488L242.517 433.362V432.039C242.559 432.039 242.685 431.913 242.895 431.661L243.084 431.346L243.147 430.779L242.832 430.653L242.895 430.086L243.21 429.771C243.21 429.645 243.252 429.435 243.336 429.141C243.42 428.847 243.462 428.658 243.462 428.574L243.273 428.196V427.314L243.336 426.81L243.021 425.865L243.273 425.991C243.273 425.907 243.315 425.76 243.399 425.55C243.483 425.298 243.525 425.109 243.525 424.983V424.416ZM243.21 433.866V434.307L243.525 434.118L243.462 433.488L243.084 433.551L243.21 433.866ZM243.273 432.606C243.189 432.606 243.147 432.669 243.147 432.795C243.147 433.005 243.21 433.11 243.336 433.11C243.462 433.11 243.525 433.026 243.525 432.858C243.525 432.69 243.462 432.606 243.336 432.606H243.273ZM244.029 432.543C243.945 432.627 243.903 432.69 243.903 432.732C243.903 432.774 243.945 432.795 244.029 432.795C244.155 432.795 244.218 432.753 244.218 432.669C244.218 432.585 244.176 432.543 244.092 432.543H244.029Z" fill="#8D9458"/>
</svg>
